<svg xmlns="http://www.w3.org/2000/svg" width="80" height="80"  viewBox="0 0 80 80" fill="none">
  <path fill="#C4C4C4" fill-rule="evenodd" d="M33.39 66.679c.018.41-.026.809-.112 1.213a7.231 7.231 0 0 1-.859 2.158c-1.177 1.975-3.177 3.293-5.752 3.293-6.067 0-8.448-2.976-11.429-10.429-2.018-5.047-2.971-6.238-5.238-6.238V50.01c6.066 0 8.447 2.976 11.428 10.428 2.02 5.048 2.972 6.238 5.239 6.238 0-.967-.014-1.824-.042-2.984-.065-2.72-.072-3.274.046-4.001.048-1.587.457-2.713 1.279-3.83-7.44-1.62-12.457-4.965-15.337-10.39l-1.079-2.537C10.484 39.914 10 36.492 10 32.54c0-4.552 1.388-8.621 3.98-12.024-.809-3.233-.698-7.184 1.088-11.646l.583-1.458 1.496-.479c.2-.064.444-.122.73-.167 2.912-.457 7.057.634 12.475 4.104a44.216 44.216 0 0 1 9.944-1.114c3.026 0 6.035.305 8.91.907 5.27-3.301 9.301-4.337 12.136-3.896.282.044.523.1.722.164l1.505.477.584 1.467c1.562 3.922 1.83 7.537 1.262 10.7C68.395 23.15 70 27.546 70 32.54c0 4.21-.302 7.376-1.169 10.455l-.915 2.511c-2.395 5.42-7.678 8.802-15.824 10.412.846 1.173 1.241 2.363 1.241 4.093v3.333c0 1.615 0 1.665-.003 3.333.007.12.017.179.028.215-.002.001-.025 6.452-.025 6.452-2.839 0-4.95-1.385-5.988-3.569a6.896 6.896 0 0 1-.678-3.145v-6.62c0-.279-.01-.295-.69-.976-1.82-1.819-2.644-3.192-2.644-5.69v-3.015l3-.302c8.931-.897 13.789-3.377 15.4-7l.752-2.057c.599-2.152.848-4.772.848-8.43 0-3.887-1.357-7.098-3.923-9.663L58 21.466l.575-1.91c.512-1.696.633-3.703.092-5.993-.09.023-.183.048-.28.075-1.785.496-4.014 1.563-6.699 3.358l-1.225.818-1.43-.354c-2.765-.686-5.737-1.038-8.737-1.038-3.337 0-6.635.424-9.681 1.255l-1.487.405-1.272-.87c-2.777-1.9-5.085-3.03-6.935-3.557a12.434 12.434 0 0 0-.377-.102c-.646 2.65-.39 4.827.263 6.46l.784 1.96-1.435 1.546c-2.286 2.465-3.49 5.464-3.49 9.02 0 3.256.382 5.954 1.08 7.986l.873 2.065c2.18 4.092 6.812 6.553 15.07 7.439l2.978.319v2.995c0 2.498-.824 3.871-2.643 5.69-.681.681-.69.697-.69.977l-.058.616c-.038.202-.038.724.014 2.906.024 1.004.038 1.798.042 2.628.04.172.046.283.059.519Z" clip-rule="evenodd"/>
</svg>
