<svg xmlns="http://www.w3.org/2000/svg" width="80" height="80"  viewBox="0 0 80 80" fill="none">
  <path fill="#C4C4C4" fill-rule="evenodd" d="M13.333 6.667h53.334a6.667 6.667 0 0 1 6.666 6.666v53.334a6.667 6.667 0 0 1-6.666 6.666H13.333a6.667 6.667 0 0 1-6.666-6.666V13.333a6.667 6.667 0 0 1 6.666-6.666Zm0 6.666v53.334h53.334V13.333H13.333Zm30 16.667c-1.725 0-3.549.527-5.16 1.507L36.668 30h-3.334v23.333H40V40c0-1.92 1.98-3.333 3.333-3.333h3.334C48.02 36.667 50 38.08 50 40v13.333h6.667V40c0-6.176-5.354-10-10-10h-3.334Zm-16.666-3.333a3.333 3.333 0 1 0 0-6.667 3.333 3.333 0 0 0 0 6.667ZM23.333 30v23.333H30V30h-6.667Z" clip-rule="evenodd"/>
</svg>
